# xmcd
# Track frame offsets:
# 154
# 11049
# 22704
# 37515
# 46689
# 61241
# 73672
# 84791
# 99430
# 112862
#
# Disc length: 1690 seconds
# Revision: 0
# Processed by: cddbd v1.5PL3 Copyright (c) Steve Scherf et al.
# Submitted via: VisiTrax 2.9.6.190 - For more info visit www.synapsa.com
#
DISCID=5e06980a
DTITLE=Joni Harms - I Want To Sing For You
DYEAR=1986
DGENRE=
TTITLE0=I Want To Sing For You
TTITLE1=Gotta Make A New Start
TTITLE2=My Daddy´s Arms
TTITLE3=This Is The Day
TTITLE4=Choose Your Love
TTITLE5=Come Spend The Rest Of Your Life With Me
TTITLE6=It´s Been Years
TTITLE7=Mr. Right
TTITLE8=Memories Of You
TTITLE9=Remember What It´s All About
EXTD=
EXTT0=
EXTT1=
EXTT2=
EXTT3=
EXTT4=
EXTT5=
EXTT6=
EXTT7=
EXTT8=
EXTT9=
PLAYORDER=
